PathFileType	4	(X/Y/Z)	C:/Users/opensim2020/Desktop/walking_exp_matlab/subject06_walking12_static.trc																																																																																																																																														
DataRate	CameraRate	NumFrames	NumMarkers	Units	OrigDataRate	OrigDataStartFrame	OrigNumFrames																																																																																																																																										
100	100	8	48	mm	100	137	363																																																																																																																																										
Frame#	Time	LFHD			RFHD			LBHD			RBHD			C7			T10			CLAV			STRN			RBAK			LSHO			LUPA			LELB			LFRM			LWRA			LWRB			LFIN			RSHO			RUPA			RELB			RFRM			RWRA			RWRB			RFIN			LASI			RASI			LPSI			RPSI			LTHI			LKNE			LTIB			LANK			LHEE			LTOE			RTHI			RKNE			RTIB			RANK			RHEE			RTOE			*39			*40			*41			*42			*43			*44			*45			*46			*47		
		X1	Y1	Z1	X2	Y2	Z2	X3	Y3	Z3	X4	Y4	Z4	X5	Y5	Z5	X6	Y6	Z6	X7	Y7	Z7	X8	Y8	Z8	X9	Y9	Z9	X10	Y10	Z10	X11	Y11	Z11	X12	Y12	Z12	X13	Y13	Z13	X14	Y14	Z14	X15	Y15	Z15	X16	Y16	Z16	X17	Y17	Z17	X18	Y18	Z18	X19	Y19	Z19	X20	Y20	Z20	X21	Y21	Z21	X22	Y22	Z22	X23	Y23	Z23	X24	Y24	Z24	X25	Y25	Z25	X26	Y26	Z26	X27	Y27	Z27	X28	Y28	Z28	X29	Y29	Z29	X30	Y30	Z30	X31	Y31	Z31	X32	Y32	Z32	X33	Y33	Z33	X34	Y34	Z34	X35	Y35	Z35	X36	Y36	Z36	X37	Y37	Z37	X38	Y38	Z38	X39	Y39	Z39	X40	Y40	Z40	X41	Y41	Z41	X42	Y42	Z42	X43	Y43	Z43	X44	Y44	Z44	X45	Y45	Z45	X46	Y46	Z46	X47	Y47	Z47	X48	Y48	Z48
																																																																																																																																																	
137	1.36	395.37103	1678.05334	661.19305	407.38046	1665.45203	529.98303	527.26569	1620.03186	673.69293	537.35815	1613.64282	544.52002	528.56635	1460.1969	614.60809	555.48962	1133.17261	599.75006	415.76727	1388.10449	606.15295	371.46552	1214.79932	608.8028	601.54962	1289.98145	531.95465	464.23312	1415.55237	771.05817	445.05707	1215.80469	847.81976	432.00699	1105.49353	866.63226	376.19473	967.96826	899.27808	289.25183	868.80438	865.41602	347.41476	852.0672	903.06592	286.68033	784.50403	909.78217	471.41922	1419.93604	450.11612	476.5961	1226.02588	350.21545	440.48373	1113.2677	320.14755	411.49188	1001.38037	282.58081	333.97388	866.68494	281.55554	392.22614	868.39417	248.52467	347.50253	799.86481	228.08795	379.1507	973.95245	700.26776	382.95609	981.55402	480.93109	535.2475	1005.24652	675.88324	531.75592	1011.40997	509.73187	481.34622	666.67865	779.22089	500.56577	503.52597	769.14459	544.97668	252.70985	794.29822	543.2735	75.00992	771.4389	582.90826	56.24265	729.42023	395.38943	39.19123	770.53094	478.50604	650.69202	412.29294	493.28461	525.7998	427.95114	562.13654	269.59103	406.80109	574.98871	78.62757	436.25287	612.90649	51.28055	479.42554	418.49066	35.86083	431.74496	501.73709	1713.59302	610.98285	NaN	NaN	NaN	NaN	NaN	NaN	NaN	NaN	NaN	NaN	NaN	NaN	NaN	NaN	NaN	NaN	NaN	NaN	NaN	NaN	NaN	NaN	NaN	NaN
138	1.37	395.39816	1678.08606	661.15527	407.52695	1665.5282	529.95605	527.24158	1619.98804	673.78534	537.47119	1613.63782	544.62439	528.5481	1460.1875	614.53473	555.54047	1133.15662	599.75269	415.78748	1388.10815	606.13324	371.51547	1214.79309	608.76782	601.51215	1289.94836	531.89313	464.23013	1415.57202	771.01263	445.06522	1215.82532	847.76532	432.04974	1105.46362	866.56	376.34674	967.94904	899.28204	289.4104	868.74048	865.39368	347.55179	852.03192	903.0166	286.86115	784.44922	909.77032	471.44357	1419.9502	450.09683	476.60934	1226.01489	350.17252	440.46579	1113.24548	320.14233	411.44681	1001.38855	282.60361	333.8757	866.70471	281.55518	392.15701	868.3974	248.54457	347.36264	799.96808	227.87875	379.21088	973.94043	700.23639	382.99316	981.53577	480.96521	535.26733	1005.25085	675.81537	531.79187	1011.40845	509.69241	481.36526	666.67358	779.18774	500.59592	503.52277	769.14117	544.97717	252.70221	794.29669	543.27954	74.99673	771.43195	582.97058	56.24964	729.40289	395.2876	39.18026	770.43469	478.47919	650.65198	412.29929	493.25754	525.79761	427.88165	562.10516	269.61728	406.72888	574.9978	78.62119	436.24017	612.91119	51.28054	479.42041	418.50128	35.85052	431.78098	501.81891	1713.56799	611.05719	NaN	NaN	NaN	NaN	NaN	NaN	NaN	NaN	NaN	NaN	NaN	NaN	NaN	NaN	NaN	NaN	NaN	NaN	NaN	NaN	NaN	NaN	NaN	NaN
139	1.38	395.39145	1678.09082	661.08325	407.70813	1665.56787	529.88129	527.17761	1619.94373	673.89246	537.59906	1613.6394	544.7193	528.62677	1460.22583	614.6347	555.56073	1133.18872	599.74109	415.8089	1388.13416	606.14093	371.55859	1214.77832	608.7226	601.56134	1289.95471	531.93243	464.22507	1415.58313	770.97705	445.07187	1215.82947	847.76807	432.12851	1105.52124	866.5863	376.42303	967.9118	899.18347	289.55682	868.69421	865.38177	347.71161	852.02338	903.07208	287.02252	784.36511	909.70929	471.48944	1419.9574	450.05948	476.60953	1226.0509	350.13959	440.43198	1113.24609	320.1297	411.40588	1001.3999	282.61792	333.82141	866.74725	281.60211	392.06717	868.41388	248.55603	347.34875	799.86304	228.17342	379.23389	973.93781	700.19788	382.9848	981.52002	480.93411	535.32501	1005.27069	675.81921	531.80011	1011.40051	509.66162	481.40891	666.67969	779.19958	500.59473	503.50177	769.12286	545.01147	252.711	794.30023	543.29199	75.0039	771.44745	582.88635	56.20272	729.41547	395.31161	39.18431	770.4483	478.49927	650.69611	412.21014	493.26346	525.80396	427.8634	562.11395	269.62039	406.74023	575.02161	78.61413	436.21805	612.9093	51.27069	479.42398	418.51532	35.85419	431.80688	501.79871	1713.58618	611.07141	NaN	NaN	NaN	NaN	NaN	NaN	NaN	NaN	NaN	NaN	NaN	NaN	NaN	NaN	NaN	NaN	NaN	NaN	NaN	NaN	NaN	NaN	NaN	NaN
140	1.39	395.35773	1678.09436	660.99615	407.90881	1665.62146	529.82123	527.09485	1619.91345	674.02588	537.74536	1613.6261	544.88043	528.64294	1460.22168	614.60083	555.56006	1133.13879	599.70355	415.80576	1388.16797	606.0556	371.57339	1214.78503	608.68188	601.5174	1289.88342	531.87347	464.23792	1415.57654	770.94513	445.10324	1215.8335	847.73724	432.19174	1105.51318	866.58044	376.53519	967.9433	899.19812	289.68741	868.63922	865.37628	347.85056	851.98792	903.04297	287.19296	784.32623	909.69135	471.53772	1419.98071	450.01819	476.59286	1226.04968	350.12067	440.42276	1113.28882	320.12988	411.32358	1001.53876	282.43427	333.72931	866.77295	281.62003	392.00137	868.44269	248.57504	347.26184	799.91083	228.16895	379.27112	973.9314	700.18738	383.00125	981.50671	480.90024	535.37268	1005.24127	675.76514	531.96332	1011.47992	509.48947	481.42352	666.66547	779.19586	500.60925	503.49802	769.11847	544.98303	252.67346	794.25244	543.29285	74.99059	771.45001	582.92841	56.21595	729.41003	395.31259	39.20466	770.43787	478.50943	650.66473	412.22418	493.29749	525.80505	427.87497	562.11682	269.58786	406.73215	575.01819	78.61379	436.21497	612.90088	51.27751	479.41125	418.53583	35.8684	431.72565	501.85425	1713.58203	611.1734	NaN	NaN	NaN	NaN	NaN	NaN	NaN	NaN	NaN	NaN	NaN	NaN	NaN	NaN	NaN	NaN	NaN	NaN	NaN	NaN	NaN	NaN	NaN	NaN
141	1.4	395.28918	1678.09119	660.91785	408.12122	1665.69275	529.7832	527.00006	1619.89551	674.19043	537.88623	1613.6731	545.0719	528.66638	1460.21021	614.57605	555.55646	1133.18616	599.72607	415.8262	1388.18835	606.05334	371.59222	1214.76514	608.65771	601.51337	1289.88452	531.85876	464.25732	1415.57202	770.96057	445.12354	1215.82996	847.69812	432.26541	1105.52332	866.63385	376.64719	967.89941	899.19061	289.81253	868.58618	865.32904	348.02249	851.94989	903.03699	287.34863	784.23785	909.64874	471.56677	1420.01343	449.97064	476.60864	1226.073	350.13678	440.33246	1113.48438	319.8775	411.28223	1001.5719	282.4599	333.78976	866.84113	281.83612	391.92715	868.45447	248.58253	347.21515	799.90265	228.24995	379.33698	973.90619	700.18176	383.263	981.38715	481.00433	535.39587	1005.24597	675.73718	531.89899	1011.43036	509.64182	481.45038	666.65015	779.18707	500.63666	503.48828	769.10297	544.9942	252.66621	794.27051	543.26855	74.97679	771.46216	582.97662	56.23208	729.41486	395.28467	39.13846	770.48846	478.53641	650.71521	412.19565	493.29297	525.77576	427.84583	562.1261	269.57599	406.72891	575.01416	78.61408	436.24619	612.89813	51.27626	479.42032	418.48752	35.83513	431.85181	501.89865	1713.58752	611.30859	NaN	NaN	NaN	NaN	NaN	NaN	NaN	NaN	NaN	NaN	NaN	NaN	NaN	NaN	NaN	NaN	NaN	NaN	NaN	NaN	NaN	NaN	NaN	NaN
142	1.41	395.22565	1678.08887	660.80048	408.34891	1665.75195	529.6972	526.88733	1619.85718	674.32422	538.06433	1613.71301	545.26898	528.7171	1460.25183	614.62628	555.56335	1133.10474	599.60352	415.85187	1388.19531	606.02161	371.62048	1214.77185	608.6084	601.55042	1289.91748	531.84583	464.27573	1415.57996	770.92053	445.15527	1215.8136	847.66248	432.2905	1105.49927	866.4884	376.73871	967.87024	899.12683	289.909	868.51617	865.29071	348.16333	851.91113	902.98132	287.49304	784.17731	909.61639	471.62131	1420.05273	449.9682	476.61832	1226.1134	350.09128	440.36496	1113.36389	320.12878	411.28021	1001.48444	282.63147	333.69421	866.87762	281.82959	391.88013	868.50043	248.58853	347.16238	799.96973	228.26425	379.33591	973.92731	700.13672	383.07529	981.46991	480.87314	535.44653	1005.27692	675.77063	531.92236	1011.43085	509.61148	481.48743	666.6571	779.1463	500.64706	503.48508	769.09851	544.98883	252.64772	794.20929	543.27661	74.97105	771.43329	582.90308	56.20318	729.4364	395.29767	39.18171	770.45258	478.55173	650.71484	412.19534	493.46918	525.69904	427.95786	562.13922	269.61075	406.7337	575.00226	78.60149	436.23694	612.89618	51.2815	479.42041	418.47385	35.85973	431.77084	502.04257	1713.57861	611.5744	NaN	NaN	NaN	NaN	NaN	NaN	NaN	NaN	NaN	NaN	NaN	NaN	NaN	NaN	NaN	NaN	NaN	NaN	NaN	NaN	NaN	NaN	NaN	NaN
143	1.42	395.15268	1678.08813	660.68597	408.55704	1665.79187	529.61255	526.79657	1619.84924	674.51379	538.25238	1613.71948	545.44714	528.57428	1460.25073	614.39789	555.60846	1133.19629	599.65399	415.88904	1388.23657	606.005	371.63565	1214.76819	608.56018	601.51898	1289.91577	531.78802	464.29742	1415.58423	770.89716	445.21158	1215.81018	847.63934	432.33487	1105.46509	866.42432	376.84967	967.83014	899.09692	290.02325	868.47302	865.26746	348.29404	851.89606	902.89893	287.66202	784.13538	909.60498	471.66656	1420.07654	449.93182	476.62885	1226.14233	350.10938	440.33237	1113.37634	320.11288	411.15085	1001.61682	282.41211	333.62561	866.92004	281.83902	391.81357	868.51282	248.6089	347.05737	800.04425	228.23126	379.36795	973.92535	700.11389	383.08618	981.48273	480.80478	535.47028	1005.25385	675.69476	532.04761	1011.51129	509.42236	481.51001	666.68115	779.17419	500.65085	503.49655	769.07343	545.02472	252.66315	794.2973	543.2821	74.98801	771.43494	582.966	56.21198	729.38922	395.2919	39.16592	770.43884	478.58194	650.69067	412.2095	493.46729	525.72375	427.94391	562.16211	269.58014	406.76831	575.03052	78.59944	436.2421	612.89886	51.27227	479.42514	418.46609	35.87438	431.8121	502.06519	1713.57703	611.70203	NaN	NaN	NaN	NaN	NaN	NaN	NaN	NaN	NaN	NaN	NaN	NaN	NaN	NaN	NaN	NaN	NaN	NaN	NaN	NaN	NaN	NaN	NaN	NaN
144	1.43	395.04016	1678.07544	660.5741	408.75888	1665.84412	529.52722	526.68323	1619.83594	674.65967	538.40149	1613.77173	545.6109	528.72064	1460.26001	614.61127	555.58997	1133.16284	599.63342	415.86151	1388.29517	606.02051	371.63498	1214.78735	608.51617	601.55756	1289.94702	531.79486	464.31146	1415.58398	770.90967	445.26529	1215.79529	847.60333	432.31244	1105.41724	866.43726	376.89453	967.80463	898.97913	290.13803	868.41724	865.20587	348.39032	851.86328	902.83423	287.80139	784.10321	909.51263	471.67291	1420.11841	449.92526	476.63177	1226.15283	350.08392	440.33228	1113.43335	320.11414	411.09579	1001.63495	282.41965	333.56586	866.96283	281.81799	391.75494	868.55829	248.61111	347.01151	800.10938	228.29892	379.39478	973.92664	700.09735	383.34018	981.39221	480.91364	535.47412	1005.28076	675.73999	532.0849	1011.52576	509.40848	481.53656	666.68982	779.17273	500.65869	503.50629	769.09363	545.04962	252.69623	794.28925	543.25488	74.99152	771.44836	582.91821	56.19434	729.41565	395.29745	39.201	770.46088	478.64423	650.69562	412.216	493.50269	525.70514	427.93884	562.18323	269.58292	406.77277	575.01215	78.59069	436.26672	612.89758	51.26998	479.45169	418.48239	35.88418	431.76849	502.08011	1713.60364	611.85309	NaN	NaN	NaN	NaN	NaN	NaN	NaN	NaN	NaN	NaN	NaN	NaN	NaN	NaN	NaN	NaN	NaN	NaN	NaN	NaN	NaN	NaN	NaN	NaN
